<mxfile host="app.diagrams.net" modified="2024-01-11T18:16:50.638Z" agent="Mozilla/5.0 (Windows NT 10.0; Win64; x64) AppleWebKit/537.36 (KHTML, like Gecko) Chrome/119.0.0.0 Safari/537.36 OPR/105.0.0.0" etag="ERWJZHsvqzYSivj59HMh" version="22.1.18" type="github">
  <diagram name="Страница — 1" id="YumrHKKEL1VToMLtWHw7">
    <mxGraphModel dx="1393" dy="789" grid="1" gridSize="10" guides="1" tooltips="1" connect="1" arrows="1" fold="1" page="1" pageScale="1" pageWidth="827" pageHeight="1169" math="0" shadow="0">
      <root>
        <mxCell id="0" />
        <mxCell id="1" parent="0" />
        <mxCell id="52RjmrCREd81JXNjt2tQ-4" value="" style="edgeStyle=orthogonalEdgeStyle;rounded=0;orthogonalLoop=1;jettySize=auto;html=1;" edge="1" parent="1" source="52RjmrCREd81JXNjt2tQ-2" target="52RjmrCREd81JXNjt2tQ-3">
          <mxGeometry relative="1" as="geometry" />
        </mxCell>
        <mxCell id="52RjmrCREd81JXNjt2tQ-2" value="Початок" style="ellipse;whiteSpace=wrap;html=1;" vertex="1" parent="1">
          <mxGeometry x="340" y="30" width="120" height="80" as="geometry" />
        </mxCell>
        <mxCell id="52RjmrCREd81JXNjt2tQ-8" style="edgeStyle=orthogonalEdgeStyle;rounded=0;orthogonalLoop=1;jettySize=auto;html=1;exitX=0.5;exitY=1;exitDx=0;exitDy=0;entryX=0.5;entryY=0;entryDx=0;entryDy=0;" edge="1" parent="1" source="52RjmrCREd81JXNjt2tQ-3" target="52RjmrCREd81JXNjt2tQ-9">
          <mxGeometry relative="1" as="geometry">
            <mxPoint x="400" y="520" as="targetPoint" />
          </mxGeometry>
        </mxCell>
        <mxCell id="52RjmrCREd81JXNjt2tQ-3" value="&lt;b&gt;&lt;font style=&quot;font-size: 18px;&quot;&gt;robots[]&lt;/font&gt;&lt;/b&gt;&lt;br&gt;Клас в якому будуть записані всі робити, що беруть участь у битві" style="rounded=1;whiteSpace=wrap;html=1;" vertex="1" parent="1">
          <mxGeometry x="310" y="180" width="180" height="90" as="geometry" />
        </mxCell>
        <mxCell id="52RjmrCREd81JXNjt2tQ-12" style="edgeStyle=orthogonalEdgeStyle;rounded=0;orthogonalLoop=1;jettySize=auto;html=1;entryX=0.5;entryY=0;entryDx=0;entryDy=0;" edge="1" parent="1" source="52RjmrCREd81JXNjt2tQ-7" target="52RjmrCREd81JXNjt2tQ-11">
          <mxGeometry relative="1" as="geometry" />
        </mxCell>
        <mxCell id="52RjmrCREd81JXNjt2tQ-7" value="&lt;span style=&quot;font-size: 18px;&quot;&gt;&lt;b&gt;Початок битви&lt;/b&gt;&lt;/span&gt;" style="rounded=1;whiteSpace=wrap;html=1;" vertex="1" parent="1">
          <mxGeometry x="310" y="480" width="180" height="90" as="geometry" />
        </mxCell>
        <mxCell id="52RjmrCREd81JXNjt2tQ-10" style="edgeStyle=orthogonalEdgeStyle;rounded=0;orthogonalLoop=1;jettySize=auto;html=1;exitX=0.5;exitY=1;exitDx=0;exitDy=0;entryX=0.5;entryY=0;entryDx=0;entryDy=0;" edge="1" parent="1" source="52RjmrCREd81JXNjt2tQ-9" target="52RjmrCREd81JXNjt2tQ-7">
          <mxGeometry relative="1" as="geometry" />
        </mxCell>
        <mxCell id="52RjmrCREd81JXNjt2tQ-9" value="&lt;span style=&quot;font-size: 18px;&quot;&gt;&lt;b&gt;Роботи добавляються до класу&lt;/b&gt;&lt;/span&gt;" style="rounded=1;whiteSpace=wrap;html=1;" vertex="1" parent="1">
          <mxGeometry x="310" y="340" width="180" height="90" as="geometry" />
        </mxCell>
        <mxCell id="52RjmrCREd81JXNjt2tQ-14" style="edgeStyle=orthogonalEdgeStyle;rounded=0;orthogonalLoop=1;jettySize=auto;html=1;exitX=0.5;exitY=1;exitDx=0;exitDy=0;entryX=0.5;entryY=0;entryDx=0;entryDy=0;" edge="1" parent="1" source="52RjmrCREd81JXNjt2tQ-11" target="52RjmrCREd81JXNjt2tQ-13">
          <mxGeometry relative="1" as="geometry" />
        </mxCell>
        <mxCell id="52RjmrCREd81JXNjt2tQ-11" value="&lt;span style=&quot;font-size: 18px;&quot;&gt;&lt;b&gt;Вибір опонента&lt;/b&gt;&lt;/span&gt;" style="rounded=1;whiteSpace=wrap;html=1;" vertex="1" parent="1">
          <mxGeometry x="310" y="630" width="180" height="90" as="geometry" />
        </mxCell>
        <mxCell id="52RjmrCREd81JXNjt2tQ-16" style="edgeStyle=orthogonalEdgeStyle;rounded=0;orthogonalLoop=1;jettySize=auto;html=1;entryX=0.5;entryY=0;entryDx=0;entryDy=0;" edge="1" parent="1" source="52RjmrCREd81JXNjt2tQ-13" target="52RjmrCREd81JXNjt2tQ-15">
          <mxGeometry relative="1" as="geometry" />
        </mxCell>
        <mxCell id="52RjmrCREd81JXNjt2tQ-13" value="&lt;span style=&quot;font-size: 18px;&quot;&gt;&lt;b&gt;Вивід під час битви статів роботів&lt;/b&gt;&lt;/span&gt;" style="rounded=1;whiteSpace=wrap;html=1;" vertex="1" parent="1">
          <mxGeometry x="310" y="780" width="180" height="90" as="geometry" />
        </mxCell>
        <mxCell id="52RjmrCREd81JXNjt2tQ-19" style="edgeStyle=orthogonalEdgeStyle;rounded=0;orthogonalLoop=1;jettySize=auto;html=1;exitX=0.5;exitY=1;exitDx=0;exitDy=0;" edge="1" parent="1" source="52RjmrCREd81JXNjt2tQ-15" target="52RjmrCREd81JXNjt2tQ-18">
          <mxGeometry relative="1" as="geometry" />
        </mxCell>
        <mxCell id="52RjmrCREd81JXNjt2tQ-15" value="&lt;span style=&quot;font-size: 18px;&quot;&gt;&lt;b&gt;Визначення переможця&lt;/b&gt;&lt;/span&gt;" style="rounded=1;whiteSpace=wrap;html=1;" vertex="1" parent="1">
          <mxGeometry x="310" y="940" width="180" height="90" as="geometry" />
        </mxCell>
        <mxCell id="52RjmrCREd81JXNjt2tQ-18" value="Кінець" style="ellipse;whiteSpace=wrap;html=1;" vertex="1" parent="1">
          <mxGeometry x="340" y="1070" width="120" height="80" as="geometry" />
        </mxCell>
      </root>
    </mxGraphModel>
  </diagram>
</mxfile>
